<mxfile host="Electron" agent="Mozilla/5.0 (X11; Linux x86_64) AppleWebKit/537.36 (KHTML, like Gecko) draw.io/24.7.17 Chrome/128.0.6613.36 Electron/32.0.1 Safari/537.36" version="24.7.17">
  <diagram name="PÃ¡gina-1" id="aEjdef9hXo9N8EUUk8QP">
    <mxGraphModel dx="2514" dy="986" grid="1" gridSize="10" guides="1" tooltips="1" connect="1" arrows="1" fold="1" page="1" pageScale="1" pageWidth="827" pageHeight="1169" math="0" shadow="0">
      <root>
        <mxCell id="0" />
        <mxCell id="1" parent="0" />
        <mxCell id="WJp8ILU4OvAt7XPxl4bj-33" style="edgeStyle=orthogonalEdgeStyle;rounded=0;orthogonalLoop=1;jettySize=auto;html=1;" edge="1" parent="1" source="WJp8ILU4OvAt7XPxl4bj-1" target="WJp8ILU4OvAt7XPxl4bj-29">
          <mxGeometry relative="1" as="geometry" />
        </mxCell>
        <mxCell id="WJp8ILU4OvAt7XPxl4bj-1" value="" style="sketch=0;points=[[0,0,0],[0.25,0,0],[0.5,0,0],[0.75,0,0],[1,0,0],[0,1,0],[0.25,1,0],[0.5,1,0],[0.75,1,0],[1,1,0],[0,0.25,0],[0,0.5,0],[0,0.75,0],[1,0.25,0],[1,0.5,0],[1,0.75,0]];outlineConnect=0;fontColor=#232F3E;fillColor=#ED7100;strokeColor=#ffffff;dashed=0;verticalLabelPosition=bottom;verticalAlign=top;align=center;html=1;fontSize=12;fontStyle=0;aspect=fixed;shape=mxgraph.aws4.resourceIcon;resIcon=mxgraph.aws4.compute;" vertex="1" parent="1">
          <mxGeometry x="-717" y="467" width="78" height="78" as="geometry" />
        </mxCell>
        <mxCell id="WJp8ILU4OvAt7XPxl4bj-2" value="Customers&lt;div&gt;Service&lt;/div&gt;" style="text;html=1;align=center;verticalAlign=middle;resizable=0;points=[];autosize=1;strokeColor=none;fillColor=none;" vertex="1" parent="1">
          <mxGeometry x="-718" y="545" width="80" height="40" as="geometry" />
        </mxCell>
        <mxCell id="WJp8ILU4OvAt7XPxl4bj-31" style="edgeStyle=orthogonalEdgeStyle;rounded=0;orthogonalLoop=1;jettySize=auto;html=1;" edge="1" parent="1" source="WJp8ILU4OvAt7XPxl4bj-3" target="WJp8ILU4OvAt7XPxl4bj-30">
          <mxGeometry relative="1" as="geometry" />
        </mxCell>
        <mxCell id="WJp8ILU4OvAt7XPxl4bj-3" value="" style="sketch=0;points=[[0,0,0],[0.25,0,0],[0.5,0,0],[0.75,0,0],[1,0,0],[0,1,0],[0.25,1,0],[0.5,1,0],[0.75,1,0],[1,1,0],[0,0.25,0],[0,0.5,0],[0,0.75,0],[1,0.25,0],[1,0.5,0],[1,0.75,0]];outlineConnect=0;fontColor=#232F3E;fillColor=#ED7100;strokeColor=#ffffff;dashed=0;verticalLabelPosition=bottom;verticalAlign=top;align=center;html=1;fontSize=12;fontStyle=0;aspect=fixed;shape=mxgraph.aws4.resourceIcon;resIcon=mxgraph.aws4.compute;" vertex="1" parent="1">
          <mxGeometry x="-557" y="467" width="78" height="78" as="geometry" />
        </mxCell>
        <mxCell id="WJp8ILU4OvAt7XPxl4bj-4" value="Products&lt;div&gt;Service&lt;/div&gt;" style="text;html=1;align=center;verticalAlign=middle;resizable=0;points=[];autosize=1;strokeColor=none;fillColor=none;" vertex="1" parent="1">
          <mxGeometry x="-553" y="545" width="70" height="40" as="geometry" />
        </mxCell>
        <mxCell id="WJp8ILU4OvAt7XPxl4bj-36" value="" style="edgeStyle=orthogonalEdgeStyle;rounded=0;orthogonalLoop=1;jettySize=auto;html=1;" edge="1" parent="1" source="WJp8ILU4OvAt7XPxl4bj-5" target="WJp8ILU4OvAt7XPxl4bj-35">
          <mxGeometry relative="1" as="geometry" />
        </mxCell>
        <mxCell id="WJp8ILU4OvAt7XPxl4bj-5" value="" style="sketch=0;points=[[0,0,0],[0.25,0,0],[0.5,0,0],[0.75,0,0],[1,0,0],[0,1,0],[0.25,1,0],[0.5,1,0],[0.75,1,0],[1,1,0],[0,0.25,0],[0,0.5,0],[0,0.75,0],[1,0.25,0],[1,0.5,0],[1,0.75,0]];outlineConnect=0;fontColor=#232F3E;fillColor=#ED7100;strokeColor=#ffffff;dashed=0;verticalLabelPosition=bottom;verticalAlign=top;align=center;html=1;fontSize=12;fontStyle=0;aspect=fixed;shape=mxgraph.aws4.resourceIcon;resIcon=mxgraph.aws4.compute;" vertex="1" parent="1">
          <mxGeometry x="-397" y="467" width="78" height="78" as="geometry" />
        </mxCell>
        <mxCell id="WJp8ILU4OvAt7XPxl4bj-6" value="Orders&lt;div&gt;Service&lt;/div&gt;" style="text;html=1;align=center;verticalAlign=middle;resizable=0;points=[];autosize=1;strokeColor=none;fillColor=none;" vertex="1" parent="1">
          <mxGeometry x="-388" y="545" width="60" height="40" as="geometry" />
        </mxCell>
        <mxCell id="WJp8ILU4OvAt7XPxl4bj-45" value="" style="edgeStyle=orthogonalEdgeStyle;rounded=0;orthogonalLoop=1;jettySize=auto;html=1;" edge="1" parent="1" source="WJp8ILU4OvAt7XPxl4bj-7" target="WJp8ILU4OvAt7XPxl4bj-38">
          <mxGeometry relative="1" as="geometry" />
        </mxCell>
        <mxCell id="WJp8ILU4OvAt7XPxl4bj-7" value="" style="sketch=0;points=[[0,0,0],[0.25,0,0],[0.5,0,0],[0.75,0,0],[1,0,0],[0,1,0],[0.25,1,0],[0.5,1,0],[0.75,1,0],[1,1,0],[0,0.25,0],[0,0.5,0],[0,0.75,0],[1,0.25,0],[1,0.5,0],[1,0.75,0]];outlineConnect=0;fontColor=#232F3E;fillColor=#ED7100;strokeColor=#ffffff;dashed=0;verticalLabelPosition=bottom;verticalAlign=top;align=center;html=1;fontSize=12;fontStyle=0;aspect=fixed;shape=mxgraph.aws4.resourceIcon;resIcon=mxgraph.aws4.compute;" vertex="1" parent="1">
          <mxGeometry x="-237" y="467" width="78" height="78" as="geometry" />
        </mxCell>
        <mxCell id="WJp8ILU4OvAt7XPxl4bj-8" value="Product Categories&lt;div&gt;Service&lt;/div&gt;" style="text;html=1;align=center;verticalAlign=middle;resizable=0;points=[];autosize=1;strokeColor=none;fillColor=none;" vertex="1" parent="1">
          <mxGeometry x="-263" y="545" width="130" height="40" as="geometry" />
        </mxCell>
        <mxCell id="WJp8ILU4OvAt7XPxl4bj-47" value="" style="edgeStyle=orthogonalEdgeStyle;rounded=0;orthogonalLoop=1;jettySize=auto;html=1;" edge="1" parent="1" source="WJp8ILU4OvAt7XPxl4bj-9" target="WJp8ILU4OvAt7XPxl4bj-39">
          <mxGeometry relative="1" as="geometry" />
        </mxCell>
        <mxCell id="WJp8ILU4OvAt7XPxl4bj-9" value="" style="sketch=0;points=[[0,0,0],[0.25,0,0],[0.5,0,0],[0.75,0,0],[1,0,0],[0,1,0],[0.25,1,0],[0.5,1,0],[0.75,1,0],[1,1,0],[0,0.25,0],[0,0.5,0],[0,0.75,0],[1,0.25,0],[1,0.5,0],[1,0.75,0]];outlineConnect=0;fontColor=#232F3E;fillColor=#ED7100;strokeColor=#ffffff;dashed=0;verticalLabelPosition=bottom;verticalAlign=top;align=center;html=1;fontSize=12;fontStyle=0;aspect=fixed;shape=mxgraph.aws4.resourceIcon;resIcon=mxgraph.aws4.compute;" vertex="1" parent="1">
          <mxGeometry x="-77" y="467" width="78" height="78" as="geometry" />
        </mxCell>
        <mxCell id="WJp8ILU4OvAt7XPxl4bj-10" value="Shopping Cart&lt;div&gt;Service&lt;/div&gt;" style="text;html=1;align=center;verticalAlign=middle;resizable=0;points=[];autosize=1;strokeColor=none;fillColor=none;" vertex="1" parent="1">
          <mxGeometry x="-88" y="545" width="100" height="40" as="geometry" />
        </mxCell>
        <mxCell id="WJp8ILU4OvAt7XPxl4bj-49" value="" style="edgeStyle=orthogonalEdgeStyle;rounded=0;orthogonalLoop=1;jettySize=auto;html=1;" edge="1" parent="1" source="WJp8ILU4OvAt7XPxl4bj-11" target="WJp8ILU4OvAt7XPxl4bj-40">
          <mxGeometry relative="1" as="geometry" />
        </mxCell>
        <mxCell id="WJp8ILU4OvAt7XPxl4bj-11" value="" style="sketch=0;points=[[0,0,0],[0.25,0,0],[0.5,0,0],[0.75,0,0],[1,0,0],[0,1,0],[0.25,1,0],[0.5,1,0],[0.75,1,0],[1,1,0],[0,0.25,0],[0,0.5,0],[0,0.75,0],[1,0.25,0],[1,0.5,0],[1,0.75,0]];outlineConnect=0;fontColor=#232F3E;fillColor=#ED7100;strokeColor=#ffffff;dashed=0;verticalLabelPosition=bottom;verticalAlign=top;align=center;html=1;fontSize=12;fontStyle=0;aspect=fixed;shape=mxgraph.aws4.resourceIcon;resIcon=mxgraph.aws4.compute;" vertex="1" parent="1">
          <mxGeometry x="83" y="467" width="78" height="78" as="geometry" />
        </mxCell>
        <mxCell id="WJp8ILU4OvAt7XPxl4bj-12" value="Payments&lt;div&gt;Service&lt;/div&gt;" style="text;html=1;align=center;verticalAlign=middle;resizable=0;points=[];autosize=1;strokeColor=none;fillColor=none;" vertex="1" parent="1">
          <mxGeometry x="82" y="545" width="80" height="40" as="geometry" />
        </mxCell>
        <mxCell id="WJp8ILU4OvAt7XPxl4bj-51" value="" style="edgeStyle=orthogonalEdgeStyle;rounded=0;orthogonalLoop=1;jettySize=auto;html=1;" edge="1" parent="1" source="WJp8ILU4OvAt7XPxl4bj-13" target="WJp8ILU4OvAt7XPxl4bj-41">
          <mxGeometry relative="1" as="geometry" />
        </mxCell>
        <mxCell id="WJp8ILU4OvAt7XPxl4bj-13" value="" style="sketch=0;points=[[0,0,0],[0.25,0,0],[0.5,0,0],[0.75,0,0],[1,0,0],[0,1,0],[0.25,1,0],[0.5,1,0],[0.75,1,0],[1,1,0],[0,0.25,0],[0,0.5,0],[0,0.75,0],[1,0.25,0],[1,0.5,0],[1,0.75,0]];outlineConnect=0;fontColor=#232F3E;fillColor=#ED7100;strokeColor=#ffffff;dashed=0;verticalLabelPosition=bottom;verticalAlign=top;align=center;html=1;fontSize=12;fontStyle=0;aspect=fixed;shape=mxgraph.aws4.resourceIcon;resIcon=mxgraph.aws4.compute;" vertex="1" parent="1">
          <mxGeometry x="243" y="467" width="78" height="78" as="geometry" />
        </mxCell>
        <mxCell id="WJp8ILU4OvAt7XPxl4bj-14" value="Recommendations&lt;div&gt;Service&lt;/div&gt;" style="text;html=1;align=center;verticalAlign=middle;resizable=0;points=[];autosize=1;strokeColor=none;fillColor=none;" vertex="1" parent="1">
          <mxGeometry x="222" y="545" width="120" height="40" as="geometry" />
        </mxCell>
        <mxCell id="WJp8ILU4OvAt7XPxl4bj-53" value="" style="edgeStyle=orthogonalEdgeStyle;rounded=0;orthogonalLoop=1;jettySize=auto;html=1;" edge="1" parent="1" source="WJp8ILU4OvAt7XPxl4bj-15" target="WJp8ILU4OvAt7XPxl4bj-42">
          <mxGeometry relative="1" as="geometry" />
        </mxCell>
        <mxCell id="WJp8ILU4OvAt7XPxl4bj-15" value="" style="sketch=0;points=[[0,0,0],[0.25,0,0],[0.5,0,0],[0.75,0,0],[1,0,0],[0,1,0],[0.25,1,0],[0.5,1,0],[0.75,1,0],[1,1,0],[0,0.25,0],[0,0.5,0],[0,0.75,0],[1,0.25,0],[1,0.5,0],[1,0.75,0]];outlineConnect=0;fontColor=#232F3E;fillColor=#ED7100;strokeColor=#ffffff;dashed=0;verticalLabelPosition=bottom;verticalAlign=top;align=center;html=1;fontSize=12;fontStyle=0;aspect=fixed;shape=mxgraph.aws4.resourceIcon;resIcon=mxgraph.aws4.compute;" vertex="1" parent="1">
          <mxGeometry x="404.5" y="467" width="78" height="78" as="geometry" />
        </mxCell>
        <mxCell id="WJp8ILU4OvAt7XPxl4bj-16" value="User Activity Logs&lt;div&gt;Service&lt;/div&gt;" style="text;html=1;align=center;verticalAlign=middle;resizable=0;points=[];autosize=1;strokeColor=none;fillColor=none;" vertex="1" parent="1">
          <mxGeometry x="384" y="545" width="120" height="40" as="geometry" />
        </mxCell>
        <mxCell id="WJp8ILU4OvAt7XPxl4bj-55" value="" style="edgeStyle=orthogonalEdgeStyle;rounded=0;orthogonalLoop=1;jettySize=auto;html=1;" edge="1" parent="1" source="WJp8ILU4OvAt7XPxl4bj-17" target="WJp8ILU4OvAt7XPxl4bj-43">
          <mxGeometry relative="1" as="geometry" />
        </mxCell>
        <mxCell id="WJp8ILU4OvAt7XPxl4bj-17" value="" style="sketch=0;points=[[0,0,0],[0.25,0,0],[0.5,0,0],[0.75,0,0],[1,0,0],[0,1,0],[0.25,1,0],[0.5,1,0],[0.75,1,0],[1,1,0],[0,0.25,0],[0,0.5,0],[0,0.75,0],[1,0.25,0],[1,0.5,0],[1,0.75,0]];outlineConnect=0;fontColor=#232F3E;fillColor=#ED7100;strokeColor=#ffffff;dashed=0;verticalLabelPosition=bottom;verticalAlign=top;align=center;html=1;fontSize=12;fontStyle=0;aspect=fixed;shape=mxgraph.aws4.resourceIcon;resIcon=mxgraph.aws4.compute;" vertex="1" parent="1">
          <mxGeometry x="563" y="467" width="78" height="78" as="geometry" />
        </mxCell>
        <mxCell id="WJp8ILU4OvAt7XPxl4bj-18" value="Reviews&lt;div&gt;Service&lt;/div&gt;" style="text;html=1;align=center;verticalAlign=middle;resizable=0;points=[];autosize=1;strokeColor=none;fillColor=none;" vertex="1" parent="1">
          <mxGeometry x="567" y="545" width="70" height="40" as="geometry" />
        </mxCell>
        <mxCell id="WJp8ILU4OvAt7XPxl4bj-57" value="" style="edgeStyle=orthogonalEdgeStyle;rounded=0;orthogonalLoop=1;jettySize=auto;html=1;" edge="1" parent="1" source="WJp8ILU4OvAt7XPxl4bj-19" target="WJp8ILU4OvAt7XPxl4bj-44">
          <mxGeometry relative="1" as="geometry" />
        </mxCell>
        <mxCell id="WJp8ILU4OvAt7XPxl4bj-19" value="" style="sketch=0;points=[[0,0,0],[0.25,0,0],[0.5,0,0],[0.75,0,0],[1,0,0],[0,1,0],[0.25,1,0],[0.5,1,0],[0.75,1,0],[1,1,0],[0,0.25,0],[0,0.5,0],[0,0.75,0],[1,0.25,0],[1,0.5,0],[1,0.75,0]];outlineConnect=0;fontColor=#232F3E;fillColor=#ED7100;strokeColor=#ffffff;dashed=0;verticalLabelPosition=bottom;verticalAlign=top;align=center;html=1;fontSize=12;fontStyle=0;aspect=fixed;shape=mxgraph.aws4.resourceIcon;resIcon=mxgraph.aws4.compute;" vertex="1" parent="1">
          <mxGeometry x="723" y="467" width="78" height="78" as="geometry" />
        </mxCell>
        <mxCell id="WJp8ILU4OvAt7XPxl4bj-20" value="Negative Feedbacks&lt;div&gt;Service&lt;/div&gt;" style="text;html=1;align=center;verticalAlign=middle;resizable=0;points=[];autosize=1;strokeColor=none;fillColor=none;" vertex="1" parent="1">
          <mxGeometry x="697" y="545" width="130" height="40" as="geometry" />
        </mxCell>
        <mxCell id="WJp8ILU4OvAt7XPxl4bj-29" value="" style="sketch=0;outlineConnect=0;fontColor=#232F3E;gradientColor=none;fillColor=#C925D1;strokeColor=none;dashed=0;verticalLabelPosition=bottom;verticalAlign=top;align=center;html=1;fontSize=12;fontStyle=0;aspect=fixed;pointerEvents=1;shape=mxgraph.aws4.rds_mysql_instance;" vertex="1" parent="1">
          <mxGeometry x="-717" y="307" width="78" height="78" as="geometry" />
        </mxCell>
        <mxCell id="WJp8ILU4OvAt7XPxl4bj-30" value="" style="sketch=0;outlineConnect=0;fontColor=#232F3E;gradientColor=none;fillColor=#C925D1;strokeColor=none;dashed=0;verticalLabelPosition=bottom;verticalAlign=top;align=center;html=1;fontSize=12;fontStyle=0;aspect=fixed;pointerEvents=1;shape=mxgraph.aws4.rds_mysql_instance;" vertex="1" parent="1">
          <mxGeometry x="-557" y="307" width="78" height="78" as="geometry" />
        </mxCell>
        <mxCell id="WJp8ILU4OvAt7XPxl4bj-32" style="edgeStyle=orthogonalEdgeStyle;rounded=0;orthogonalLoop=1;jettySize=auto;html=1;entryX=0.5;entryY=0;entryDx=0;entryDy=0;entryPerimeter=0;" edge="1" parent="1" source="WJp8ILU4OvAt7XPxl4bj-30" target="WJp8ILU4OvAt7XPxl4bj-3">
          <mxGeometry relative="1" as="geometry" />
        </mxCell>
        <mxCell id="WJp8ILU4OvAt7XPxl4bj-34" style="edgeStyle=orthogonalEdgeStyle;rounded=0;orthogonalLoop=1;jettySize=auto;html=1;entryX=0.5;entryY=0;entryDx=0;entryDy=0;entryPerimeter=0;" edge="1" parent="1" source="WJp8ILU4OvAt7XPxl4bj-29" target="WJp8ILU4OvAt7XPxl4bj-1">
          <mxGeometry relative="1" as="geometry" />
        </mxCell>
        <mxCell id="WJp8ILU4OvAt7XPxl4bj-35" value="" style="sketch=0;outlineConnect=0;fontColor=#232F3E;gradientColor=none;fillColor=#C925D1;strokeColor=none;dashed=0;verticalLabelPosition=bottom;verticalAlign=top;align=center;html=1;fontSize=12;fontStyle=0;aspect=fixed;pointerEvents=1;shape=mxgraph.aws4.rds_mysql_instance;" vertex="1" parent="1">
          <mxGeometry x="-397" y="307" width="78" height="78" as="geometry" />
        </mxCell>
        <mxCell id="WJp8ILU4OvAt7XPxl4bj-37" style="edgeStyle=orthogonalEdgeStyle;rounded=0;orthogonalLoop=1;jettySize=auto;html=1;entryX=0.5;entryY=0;entryDx=0;entryDy=0;entryPerimeter=0;" edge="1" parent="1" source="WJp8ILU4OvAt7XPxl4bj-35" target="WJp8ILU4OvAt7XPxl4bj-5">
          <mxGeometry relative="1" as="geometry" />
        </mxCell>
        <mxCell id="WJp8ILU4OvAt7XPxl4bj-38" value="" style="sketch=0;outlineConnect=0;fontColor=#232F3E;gradientColor=none;fillColor=#C925D1;strokeColor=none;dashed=0;verticalLabelPosition=bottom;verticalAlign=top;align=center;html=1;fontSize=12;fontStyle=0;aspect=fixed;pointerEvents=1;shape=mxgraph.aws4.rds_mysql_instance;" vertex="1" parent="1">
          <mxGeometry x="-237" y="307" width="78" height="78" as="geometry" />
        </mxCell>
        <mxCell id="WJp8ILU4OvAt7XPxl4bj-39" value="" style="sketch=0;outlineConnect=0;fontColor=#232F3E;gradientColor=none;fillColor=#C925D1;strokeColor=none;dashed=0;verticalLabelPosition=bottom;verticalAlign=top;align=center;html=1;fontSize=12;fontStyle=0;aspect=fixed;pointerEvents=1;shape=mxgraph.aws4.rds_mysql_instance;" vertex="1" parent="1">
          <mxGeometry x="-77" y="307" width="78" height="78" as="geometry" />
        </mxCell>
        <mxCell id="WJp8ILU4OvAt7XPxl4bj-40" value="" style="sketch=0;outlineConnect=0;fontColor=#232F3E;gradientColor=none;fillColor=#C925D1;strokeColor=none;dashed=0;verticalLabelPosition=bottom;verticalAlign=top;align=center;html=1;fontSize=12;fontStyle=0;aspect=fixed;pointerEvents=1;shape=mxgraph.aws4.rds_mysql_instance;" vertex="1" parent="1">
          <mxGeometry x="83" y="307" width="78" height="78" as="geometry" />
        </mxCell>
        <mxCell id="WJp8ILU4OvAt7XPxl4bj-41" value="" style="sketch=0;outlineConnect=0;fontColor=#232F3E;gradientColor=none;fillColor=#C925D1;strokeColor=none;dashed=0;verticalLabelPosition=bottom;verticalAlign=top;align=center;html=1;fontSize=12;fontStyle=0;aspect=fixed;pointerEvents=1;shape=mxgraph.aws4.rds_mysql_instance;" vertex="1" parent="1">
          <mxGeometry x="243" y="307" width="78" height="78" as="geometry" />
        </mxCell>
        <mxCell id="WJp8ILU4OvAt7XPxl4bj-42" value="" style="sketch=0;outlineConnect=0;fontColor=#232F3E;gradientColor=none;fillColor=#C925D1;strokeColor=none;dashed=0;verticalLabelPosition=bottom;verticalAlign=top;align=center;html=1;fontSize=12;fontStyle=0;aspect=fixed;pointerEvents=1;shape=mxgraph.aws4.rds_mysql_instance;" vertex="1" parent="1">
          <mxGeometry x="404.5" y="307" width="78" height="78" as="geometry" />
        </mxCell>
        <mxCell id="WJp8ILU4OvAt7XPxl4bj-56" style="edgeStyle=orthogonalEdgeStyle;rounded=0;orthogonalLoop=1;jettySize=auto;html=1;" edge="1" parent="1" source="WJp8ILU4OvAt7XPxl4bj-43" target="WJp8ILU4OvAt7XPxl4bj-17">
          <mxGeometry relative="1" as="geometry" />
        </mxCell>
        <mxCell id="WJp8ILU4OvAt7XPxl4bj-43" value="" style="sketch=0;outlineConnect=0;fontColor=#232F3E;gradientColor=none;fillColor=#C925D1;strokeColor=none;dashed=0;verticalLabelPosition=bottom;verticalAlign=top;align=center;html=1;fontSize=12;fontStyle=0;aspect=fixed;pointerEvents=1;shape=mxgraph.aws4.rds_mysql_instance;" vertex="1" parent="1">
          <mxGeometry x="563" y="307" width="78" height="78" as="geometry" />
        </mxCell>
        <mxCell id="WJp8ILU4OvAt7XPxl4bj-44" value="" style="sketch=0;outlineConnect=0;fontColor=#232F3E;gradientColor=none;fillColor=#C925D1;strokeColor=none;dashed=0;verticalLabelPosition=bottom;verticalAlign=top;align=center;html=1;fontSize=12;fontStyle=0;aspect=fixed;pointerEvents=1;shape=mxgraph.aws4.rds_mysql_instance;" vertex="1" parent="1">
          <mxGeometry x="723" y="307" width="78" height="78" as="geometry" />
        </mxCell>
        <mxCell id="WJp8ILU4OvAt7XPxl4bj-46" style="edgeStyle=orthogonalEdgeStyle;rounded=0;orthogonalLoop=1;jettySize=auto;html=1;entryX=0.5;entryY=0;entryDx=0;entryDy=0;entryPerimeter=0;" edge="1" parent="1" source="WJp8ILU4OvAt7XPxl4bj-38" target="WJp8ILU4OvAt7XPxl4bj-7">
          <mxGeometry relative="1" as="geometry" />
        </mxCell>
        <mxCell id="WJp8ILU4OvAt7XPxl4bj-48" style="edgeStyle=orthogonalEdgeStyle;rounded=0;orthogonalLoop=1;jettySize=auto;html=1;entryX=0.5;entryY=0;entryDx=0;entryDy=0;entryPerimeter=0;" edge="1" parent="1" source="WJp8ILU4OvAt7XPxl4bj-39" target="WJp8ILU4OvAt7XPxl4bj-9">
          <mxGeometry relative="1" as="geometry" />
        </mxCell>
        <mxCell id="WJp8ILU4OvAt7XPxl4bj-50" style="edgeStyle=orthogonalEdgeStyle;rounded=0;orthogonalLoop=1;jettySize=auto;html=1;entryX=0.5;entryY=0;entryDx=0;entryDy=0;entryPerimeter=0;" edge="1" parent="1" source="WJp8ILU4OvAt7XPxl4bj-40" target="WJp8ILU4OvAt7XPxl4bj-11">
          <mxGeometry relative="1" as="geometry" />
        </mxCell>
        <mxCell id="WJp8ILU4OvAt7XPxl4bj-52" style="edgeStyle=orthogonalEdgeStyle;rounded=0;orthogonalLoop=1;jettySize=auto;html=1;entryX=0.5;entryY=0;entryDx=0;entryDy=0;entryPerimeter=0;" edge="1" parent="1" source="WJp8ILU4OvAt7XPxl4bj-41" target="WJp8ILU4OvAt7XPxl4bj-13">
          <mxGeometry relative="1" as="geometry" />
        </mxCell>
        <mxCell id="WJp8ILU4OvAt7XPxl4bj-54" style="edgeStyle=orthogonalEdgeStyle;rounded=0;orthogonalLoop=1;jettySize=auto;html=1;entryX=0.5;entryY=0;entryDx=0;entryDy=0;entryPerimeter=0;" edge="1" parent="1" source="WJp8ILU4OvAt7XPxl4bj-42" target="WJp8ILU4OvAt7XPxl4bj-15">
          <mxGeometry relative="1" as="geometry" />
        </mxCell>
        <mxCell id="WJp8ILU4OvAt7XPxl4bj-58" style="edgeStyle=orthogonalEdgeStyle;rounded=0;orthogonalLoop=1;jettySize=auto;html=1;entryX=0.5;entryY=0;entryDx=0;entryDy=0;entryPerimeter=0;" edge="1" parent="1" source="WJp8ILU4OvAt7XPxl4bj-44" target="WJp8ILU4OvAt7XPxl4bj-19">
          <mxGeometry relative="1" as="geometry" />
        </mxCell>
      </root>
    </mxGraphModel>
  </diagram>
</mxfile>
